<svg xmlns="http://www.w3.org/2000/svg" xmlns:xlink="http://www.w3.org/1999/xlink" data-name="Layer 1" width="895.6799926757812" height="517.47998046875" style=""><rect id="backgroundrect" width="100%" height="100%" x="0" y="0" fill="none" stroke="none"/><defs><linearGradient id="74471b12-b6be-488b-b2aa-2815e91483d9" x1="0" y1="0.5000101327896118" x2="1" y2="0.5000101327896118"><stop offset="0" stop-color="gray" stop-opacity="0.25"/><stop offset="0.54" stop-color="gray" stop-opacity="0.12"/><stop offset="1" stop-color="gray" stop-opacity="0.1"/></linearGradient><linearGradient id="f5c756da-9879-448e-9194-9478f83d355f" x1="785.969970703125" y1="446.1400146484375" x2="785.969970703125" y2="321.9100036621094" gradientTransform="translate(1166.67 -399.94) rotate(90)" xlink:href="#74471b12-b6be-488b-b2aa-2815e91483d9"/><linearGradient id="5c9be04e-db0f-4829-87c1-2cfa193e30b8" x1="660.9199829101562" y1="518.1900024414062" x2="660.9199829101562" y2="494.1700134277344" gradientTransform="translate(1146.84 -172.9) rotate(90)" xlink:href="#74471b12-b6be-488b-b2aa-2815e91483d9"/><linearGradient id="b92f3a53-b4d2-4abd-916c-aeb632188996" x1="433.6600036621094" y1="605.22998046875" x2="433.6600036621094" y2="235.22999572753906" gradientTransform="translate(13.58 8.51)" xlink:href="#74471b12-b6be-488b-b2aa-2815e91483d9"/><linearGradient id="44577794-7f8e-40ae-89fc-019e5bfac17e" x1="428.3599853515625" y1="413.7099914550781" x2="428.3599853515625" y2="291.4599914550781" gradientTransform="translate(-1.05 11.3)" xlink:href="#74471b12-b6be-488b-b2aa-2815e91483d9"/><linearGradient id="666bb7d3-84d0-4835-ad07-c313c2384f21" x1="295.2200012207031" y1="484.6099853515625" x2="295.2200012207031" y2="460.9800109863281" gradientTransform="translate(28.38 37.45)" xlink:href="#74471b12-b6be-488b-b2aa-2815e91483d9"/><linearGradient id="59939605-05af-4a9a-9980-f700897f3f8b" x1="455.07000732421875" y1="464.4800109863281" x2="455.07000732421875" y2="10.479999542236328" gradientTransform="matrix(1, 0, 0, 1, 0, 0)" xlink:href="#74471b12-b6be-488b-b2aa-2815e91483d9"/><linearGradient id="6c0ba2ee-2d81-48f4-b4cf-f21b525fcc13" x1="449.07000732421875" y1="229.47999572753906" x2="449.07000732421875" y2="79.4800033569336" gradientTransform="matrix(1, 0, 0, 1, 0, 0)" xlink:href="#74471b12-b6be-488b-b2aa-2815e91483d9"/><linearGradient id="45b0c09d-2995-447e-8cb2-7f6b59b5e20c" x1="298.07000732421875" y1="316.4800109863281" x2="298.07000732421875" y2="287.4800109863281" gradientTransform="matrix(1, 0, 0, 1, 0, 0)" xlink:href="#74471b12-b6be-488b-b2aa-2815e91483d9"/><linearGradient id="e5b0a96a-81f6-4370-afe3-5a7d6a35b55e" x1="457.07000732421875" y1="517.47998046875" x2="457.07000732421875" y2="364.4800109863281" gradientTransform="matrix(1, 0, 0, 1, 0, 0)" xlink:href="#74471b12-b6be-488b-b2aa-2815e91483d9"/><linearGradient id="a1850e5a-cf77-4889-926a-0125112ab273" x1="611.22998046875" y1="564.739990234375" x2="611.22998046875" y2="464.739990234375" gradientTransform="matrix(1, 0, 0, 1, 0, 0)" xlink:href="#74471b12-b6be-488b-b2aa-2815e91483d9"/><linearGradient id="66998849-614e-4d8a-b9ff-f14bbc588ed8" x1="611.22998046875" y1="660.739990234375" x2="611.22998046875" y2="602.739990234375" gradientTransform="matrix(1, 0, 0, 1, 0, 0)" xlink:href="#74471b12-b6be-488b-b2aa-2815e91483d9"/></defs><title>safe</title><g class="currentLayer" style=""><title>Layer 1</title><rect x="1039.8299560546875" y="894.010009765625" width="19.8799991607666" height="470.4100036621094" transform="rotate(-81.36000061035156 247.60000610351565,844.0900268554688) " fill="#f5f5f5" id="svg_1"/><rect x="647.949951171875" y="1173.1600341796875" width="376" height="490.2900085449219" transform="rotate(-81.36000061035156 58.720001220703004,963.5700073242186) " fill="url(#74471b12-b6be-488b-b2aa-2815e91483d9)" id="svg_2"/><rect x="650.6399536132812" y="1198.75" width="342.8699951171875" height="470.4100036621094" transform="rotate(-81.36000061035156 47.159999847412145,969.52001953125) " fill="#f5f5f5" id="svg_3"/><circle cx="673.8699951171875" cy="848.3699951171875" r="4.860000133514404" transform="rotate(-81.36000061035156 92.87999725341784,596.8599853515624) " fill="#ff5252" id="svg_4"/><circle cx="696.3200073242188" cy="865.1400146484375" r="4.860000133514404" transform="rotate(-81.36000061035156 102.12000274658189,611.6199951171874) " fill="#ff0" id="svg_5"/><circle cx="718.7699584960938" cy="881.9200439453125" r="4.860000133514404" transform="rotate(-81.36000061035156 111.36000061035156,626.3900146484375) " fill="#69f0ae" id="svg_6"/><rect x="851.780029296875" y="1085.3800048828125" width="124.2300033569336" height="422.3800048828125" transform="rotate(-81.36000061035156 131.24999999999997,910.5399780273438) " fill="url(#f5c756da-9879-448e-9194-9478f83d355f)" id="svg_7"/><rect x="491.15997314453125" y="25.340903341770172" width="413.2699890136719" height="115.12000274658203" transform="rotate(8.640000343322754 -85.19999694824264,-304.510009765625) " fill="#4141e8" id="svg_8" class="" fill-opacity="1"/><rect x="538.4100341796875" y="1330.760009765625" width="24.020000457763672" height="28.15999984741211" transform="rotate(-81.36000061035156 -90.23999786376953,856.8200073242188) " fill="url(#5c9be04e-db0f-4829-87c1-2cfa193e30b8)" id="svg_9"/><rect x="556.27001953125" y="195.68002319335938" width="26.5" height="19.8799991607666" transform="rotate(8.640000343322754 -71.61000061035158,-282.04998779296875) " fill="#1100ff" id="svg_10"/><rect x="556.1400146484375" y="230.39999389648438" width="26.5" height="19.8799991607666" transform="rotate(8.640000343322754 -66.62999725341798,-280.8999938964844) " fill="#ff5252" id="svg_11"/><rect x="556.0299682617188" y="265.1199951171875" width="26.5" height="19.8799991607666" transform="rotate(8.640000343322754 -61.63999938964835,-279.75) " fill="#ff9800" id="svg_12"/><rect x="630.3399658203125" y="200.3800048828125" width="213.6699981689453" height="11.59000015258789" transform="rotate(8.640000343322754 -66.0699996948239,-306.13000488281256) " fill="#1100ff" opacity="0.4" id="svg_13"/><rect x="630.219970703125" y="235.10000610351562" width="213.6699981689453" height="11.59000015258789" transform="rotate(8.640000343322754 -61.090000152587805,-304.9800109863281) " fill="#1100ff" opacity="0.4" id="svg_14"/><rect x="630.1100463867188" y="269.8200378417969" width="213.6699981689453" height="11.59000015258789" transform="rotate(8.640000343322754 -56.09999847412068,-303.8299865722657) " fill="#1100ff" opacity="0.4" id="svg_15"/><rect x="-40.80000305175781" y="158.95999145507812" width="500.8399963378906" height="19.559999465942383" transform="rotate(-12.600000381469727 -199.94999694824216,-95.5500030517578) " fill="#f5f5f5" id="svg_16"/><rect x="-48.69000244140625" y="160.36001586914062" width="522" height="370" transform="rotate(-12.600000381469727 -234.91999816894523,-83.37999725341804) " fill="url(#b92f3a53-b4d2-4abd-916c-aeb632188996)" id="svg_17"/><rect x="-38.92999267578125" y="186.9199981689453" width="500.8399963378906" height="337.3999938964844" transform="rotate(-12.600000381469727 -237.00999450683585,-82.86000061035155) " fill="#f5f5f5" id="svg_18"/><ellipse cx="-39.77000427246094" cy="171.24000549316406" rx="5.170000076293945" ry="4.78000020980835" transform="rotate(-12.600000381469727 -216.88000488281233,-145.00999450683597) " fill="#ff5252" id="svg_19"/><ellipse cx="-24.8699951171875" cy="171.09999084472656" rx="5.170000076293945" ry="4.78000020980835" transform="rotate(-12.600000381469727 -215.86999511718759,-142.0500030517578) " fill="#ff0" id="svg_20"/><ellipse cx="-9.979995727539062" cy="170.94998168945312" rx="5.170000076293945" ry="4.78000020980835" transform="rotate(-12.600000381469727 -214.86000061035162,-139.1000061035156) " fill="#69f0ae" id="svg_21"/><rect x="-18.789993286132812" y="213.48001098632812" width="449.70001220703125" height="122.25" transform="rotate(-12.600000381469727 -221.24999999999997,-89.27999877929692) " fill="url(#44577794-7f8e-40ae-89fc-019e5bfac17e)" id="svg_22"/><rect x="-13.470001220703125" y="218.3800048828125" width="440" height="113.27999877929688" transform="rotate(-12.600000381469727 -221.30000305175778,-89.16000366210939) " fill="#4141e8" id="svg_23" class="" fill-opacity="1"/><rect x="52.93998718261719" y="390.0400085449219" width="29.979999542236328" height="23.6299991607666" transform="rotate(-12.600000381469727 -255.66999816894523,-108.37999725341807) " fill="url(#666bb7d3-84d0-4835-ad07-c313c2384f21)" id="svg_24"/><rect x="309.8299865722656" y="499.9599914550781" width="28.219999313354492" height="19.559999465942383" transform="matrix(0.98,-0.22,0.22,0.98,-255.56,-108.32) " fill="#1100ff" id="svg_25"/><rect x="54.6300048828125" y="426.6300048828125" width="28.219999313354492" height="19.559999465942383" transform="rotate(-12.600000381469727 -262.48999023437506,-105.94000244140611) " fill="#ff5252" id="svg_26"/><rect x="324.4100036621094" y="565.1799926757812" width="28.219999313354492" height="19.559999465942383" transform="matrix(0.98,-0.22,0.22,0.98,-269.43,-103.57) " fill="#ff9800" id="svg_27"/><rect x="137.4300079345703" y="393.8800048828125" width="227.49000549316406" height="11.40999984741211" transform="rotate(-12.600000381469727 -243.13999938964838,-72.06999969482415) " fill="#1100ff" opacity="0.4" id="svg_28"/><rect x="137.7799835205078" y="428.8699951171875" width="227.49000549316406" height="11.40999984741211" transform="rotate(-12.600000381469727 -250.0800018310547,-69.69000244140632) " fill="#1100ff" opacity="0.4" id="svg_29"/><rect x="138.1300048828125" y="463.8499755859375" width="227.49000549316406" height="11.40999984741211" transform="rotate(-12.600000381469727 -257.0199890136719,-67.31999969482412) " fill="#1100ff" opacity="0.4" id="svg_30"/><rect x="170.07000732421875" y="18.479999542236328" width="568" height="24" fill="#f5f5f5" id="svg_31"/><rect x="159.07000732421875" y="10.479999542236328" width="592" height="454" fill="url(#59939605-05af-4a9a-9980-f700897f3f8b)" id="svg_32"/><rect x="170.07000732421875" y="42.47999954223633" width="568" height="414" fill="#fff" id="svg_33"/><circle cx="183.94000244140625" cy="30.479999542236328" r="5.869999885559082" fill="#ff5252" id="svg_34"/><circle cx="200.07000732421875" cy="30.479999542236328" r="5.869999885559082" fill="#ff0" id="svg_35"/><circle cx="216.1999969482422" cy="30.479999542236328" r="5.869999885559082" fill="#69f0ae" id="svg_36"/><rect x="194.07000732421875" y="79.4800033569336" width="510" height="150" fill="url(#6c0ba2ee-2d81-48f4-b4cf-f21b525fcc13)" id="svg_37"/><rect x="200.07000732421875" y="85.4800033569336" width="499" height="139" fill="#4141e8" id="svg_38" class="" fill-opacity="1"/><rect x="281.07000732421875" y="287.4800109863281" width="34" height="29" fill="url(#45b0c09d-2995-447e-8cb2-7f6b59b5e20c)" id="svg_39"/><rect x="282.57000732421875" y="289.4800109863281" width="32" height="24" fill="#1100ff" id="svg_40"/><rect x="282.57000732421875" y="330.4800109863281" width="32" height="24" fill="#ff5252" id="svg_41"/><rect x="282.57000732421875" y="371.4800109863281" width="32" height="24" fill="#009900" id="svg_42" class="" fill-opacity="1"/><rect x="367.57000732421875" y="294.4800109863281" width="258" height="14" fill="#1100ff" opacity="0.4" id="svg_43"/><rect x="367.57000732421875" y="335.4800109863281" width="258" height="14" fill="#1100ff" opacity="0.4" id="svg_44"/><rect x="367.57000732421875" y="376.4800109863281" width="258" height="14" fill="#1100ff" opacity="0.4" id="svg_45"/><rect x="364.07000732421875" y="364.4800109863281" width="186" height="153" fill="url(#e5b0a96a-81f6-4370-afe3-5a7d6a35b55e)" id="svg_46"/><path d="M406.9899963378906,340.15000549316403 a52.08,52.08 0 0 1 104.17,0 v33.33 H525.7399963378906 V340.15000549316403 a66.67,66.67 0 1 0 -133.33,0 v33.33 h14.58 z" fill="url(#a1850e5a-cf77-4889-926a-0125112ab273)" id="svg_47"/><path d="M409.06999633789064,339.4800054931641 a50,50 0 0 1 100,0 v32 h14 v-32 a64,64 0 0 0 -128,0 v32 h14 z" fill="#b6b6b6" id="svg_48" class="" fill-opacity="1"/><rect x="372.07000732421875" y="369.4800109863281" width="174" height="142" fill="#1100ff" id="svg_49"/><rect x="372.07000732421875" y="369.4800109863281" width="174" height="142" fill="#b6b6b6" id="svg_50" class="" fill-opacity="1"/><rect x="372.07000732421875" y="397.4800109863281" width="174" height="86" fill="#6d6d6d" id="svg_51" class="" fill-opacity="1"/><path d="M471.8399963378906,424.24000549316406 a12.76,12.76 0 1 0 -22,8.74 v27.22 a9.28,9.28 0 0 0 18.56,0 V432.9800054931641 A12.7,12.7 0 0 0 471.8399963378906,424.24000549316406 z" fill="url(#66998849-614e-4d8a-b9ff-f14bbc588ed8)" id="svg_52"/><path d="M470.06999633789064,426.4800054931641 a11,11 0 1 0 -19,7.53 v23.47 a8,8 0 1 0 16,0 V434.01000549316404 A11,11 0 0 0 470.06999633789064,426.4800054931641 z" opacity="0.2" id="svg_53" class="" fill="#000000" fill-opacity="1"/></g></svg>